<svg width="13" height="14" viewBox="0 0 13 14" fill="none" xmlns="http://www.w3.org/2000/svg">
<g filter="url(#filter0_d_108_6416)">
<path d="M13 6.5C13 10.0899 10.0899 13 6.5 13C2.9101 13 0 10.0899 0 6.5C0 2.9101 2.9101 0 6.5 0C10.0899 0 13 2.9101 13 6.5Z" fill="url(#paint0_radial_108_6416)"/>
<path d="M0 6.5C0 8.81997 1.21568 10.8557 3.04449 12.0059H9.95551C11.7843 10.8557 13 8.81997 13 6.5C13 4.18003 11.7843 2.14432 9.95551 0.994103H3.04449C1.21568 2.14432 0 4.18003 0 6.5Z" fill="url(#paint1_linear_108_6416)"/>
<path d="M0 6.5C0 8.15505 0.618896 9.6652 1.6374 10.8128H11.3626C12.3811 9.6652 13 8.15505 13 6.5C13 4.84495 12.3811 3.3348 11.3626 2.18726H1.6374C0.618896 3.3348 0 4.84495 0 6.5Z" fill="url(#paint2_linear_108_6416)"/>
<path d="M0 6.5C0 7.46732 0.211555 8.38506 0.59053 9.20995H12.4095C12.7884 8.38506 13 7.46732 13 6.5C13 5.53268 12.7884 4.61494 12.4095 3.79005H0.59053C0.211555 4.61494 0 5.53268 0 6.5Z" fill="url(#paint3_linear_108_6416)"/>
<path d="M0 6.5C0 7.05988 0.0710144 7.6031 0.204117 8.12143H12.7959C12.929 7.6031 13 7.05988 13 6.5C13 5.94012 12.929 5.3969 12.7959 4.87857H0.204117C0.0710144 5.3969 0 5.94012 0 6.5Z" fill="url(#paint4_linear_108_6416)"/>
<path d="M5.98386 0.0203323C2.63537 0.283463 0 3.08387 0 6.5C0 9.91613 2.63537 12.7165 5.98386 12.9797C9.33234 12.7165 11.9677 9.91613 11.9677 6.5C11.9677 3.08387 9.33234 0.283463 5.98386 0.0203323Z" fill="url(#paint5_radial_108_6416)"/>
<path d="M6.32028 0.615227C6.09712 0.584877 5.87059 0.584877 5.64733 0.615227C2.74943 1.00948 0.516045 3.49389 0.516045 6.5C0.516045 9.50611 2.74943 11.9905 5.64733 12.3848C5.87059 12.4151 6.09712 12.4151 6.32028 12.3848C9.21828 11.9905 11.4517 9.50611 11.4517 6.5C11.4517 3.49389 9.21828 1.00948 6.32028 0.615227Z" fill="url(#paint6_radial_108_6416)"/>
<path d="M10.304 6.5C10.304 3.8808 8.35798 1.75751 5.95747 1.75751C3.55687 1.75751 1.61082 3.8808 1.61082 6.5C1.61082 9.1192 3.55687 11.2425 5.95747 11.2425C8.35798 11.2425 10.304 9.1192 10.304 6.5Z" fill="url(#paint7_radial_108_6416)"/>
<path d="M7.15083 1.93881C6.6097 1.7706 6.03166 1.7706 5.49052 1.93881C3.67023 2.50465 2.33723 4.33237 2.33723 6.5C2.33723 8.70998 3.7229 10.5668 5.59794 11.0929C6.07014 11.2254 6.57121 11.2254 7.04342 11.0929C8.91846 10.5668 10.304 8.71008 10.304 6.5C10.304 4.33237 8.97112 2.50465 7.15083 1.93881Z" fill="url(#paint8_radial_108_6416)"/>
<path d="M2.53593 7.24131C2.50463 7.23019 2.48034 7.20922 2.46309 7.17841C2.45007 7.14558 2.44913 7.11351 2.46025 7.08221L3.54311 4.03469C3.55535 4.00026 3.57631 3.97598 3.60601 3.96185C3.63683 3.94459 3.66945 3.94208 3.70388 3.95432L4.99521 4.41316C5.40843 4.55998 5.6975 4.76847 5.86241 5.03861C6.03046 5.30986 6.05386 5.6161 5.93261 5.95732C5.85475 6.17646 5.73691 6.34437 5.5791 6.46105C5.42442 6.57885 5.24285 6.64831 5.03438 6.66943L5.26118 8.04043C5.2639 8.06255 5.26248 8.08144 5.25692 8.09709C5.24802 8.12213 5.23028 8.14227 5.20371 8.15751C5.17826 8.16962 5.15144 8.17067 5.12327 8.16066L4.46117 7.9254C4.37039 7.89314 4.32123 7.82808 4.3137 7.73021L4.15924 6.5277L3.70845 6.36753L3.34304 7.39589C3.33081 7.43032 3.30828 7.45405 3.27544 7.46706C3.24575 7.48119 3.21368 7.48214 3.17924 7.4699L2.53593 7.24131ZM4.47494 5.86246C4.60955 5.91029 4.72297 5.91357 4.8152 5.8723C4.91167 5.82902 4.98104 5.7479 5.02331 5.62894C5.06558 5.50998 5.06351 5.40171 5.01709 5.30412C4.9738 5.20765 4.88485 5.1355 4.75024 5.08767L4.22902 4.90247L3.95372 5.67726L4.47494 5.86246Z" fill="white"/>
<path d="M6.56382 9.20138C6.53251 9.19026 6.50823 9.16929 6.49097 9.13848C6.47685 9.10878 6.4759 9.07671 6.48814 9.04228L6.60493 8.71358C6.38016 8.60198 6.20039 8.47287 6.06562 8.32627C5.93509 8.17764 5.85092 8.02257 5.81312 7.86106C5.77844 7.70066 5.78412 7.54578 5.83014 7.39642C5.84015 7.36825 5.85788 7.34811 5.88334 7.336C5.91192 7.325 5.94031 7.32451 5.96848 7.33452L6.59301 7.55643C6.63371 7.57089 6.66279 7.58828 6.68025 7.60859C6.69771 7.62889 6.71497 7.65971 6.73202 7.70102C6.76789 7.90768 6.91574 8.05717 7.17557 8.1495C7.34461 8.20956 7.48342 8.23068 7.59201 8.21285C7.70483 8.193 7.77737 8.13769 7.80963 8.0469C7.83299 7.98116 7.82685 7.91905 7.79123 7.86055C7.75984 7.80004 7.69806 7.73578 7.60588 7.66777C7.51794 7.59774 7.38259 7.50733 7.19983 7.39656C6.84774 7.18684 6.60503 6.97191 6.4717 6.75177C6.33838 6.53164 6.32233 6.27914 6.42355 5.99427C6.51365 5.7407 6.68063 5.55852 6.92449 5.44773C7.16946 5.3338 7.45782 5.3111 7.78957 5.37962L7.90637 5.05092C7.9186 5.01649 7.93957 4.99221 7.96927 4.97808C8.0021 4.96507 8.03417 4.96412 8.06547 4.97524L8.474 5.1204C8.50843 5.13264 8.53272 5.15361 8.54684 5.18331C8.56097 5.21301 8.56191 5.24507 8.54968 5.27951L8.42955 5.6176C8.62281 5.72858 8.77733 5.85929 8.89311 6.00973C9.01 6.15703 9.08534 6.3072 9.1191 6.46023C9.15711 6.61124 9.15867 6.74577 9.12378 6.86382C9.11377 6.89199 9.09548 6.9137 9.06891 6.92894C9.04345 6.94105 9.01663 6.9421 8.98846 6.93208L8.33106 6.69849C8.25906 6.67291 8.21585 6.62583 8.20144 6.55724C8.20602 6.48483 8.17539 6.41225 8.10957 6.3395C8.048 6.26473 7.96086 6.20733 7.84816 6.16729C7.71668 6.12057 7.6066 6.10789 7.51791 6.12927C7.42923 6.15064 7.36876 6.20672 7.3365 6.2975C7.30424 6.38829 7.32561 6.47697 7.40062 6.56356C7.47674 6.64702 7.63212 6.76041 7.86678 6.90372C8.14214 7.0615 8.35301 7.21223 8.49939 7.35592C8.64689 7.49647 8.73853 7.64538 8.77432 7.80265C8.81122 7.95679 8.79519 8.1309 8.72622 8.32499C8.62833 8.60048 8.44595 8.79128 8.17907 8.89742C7.91531 9.00467 7.60504 9.01958 7.24824 8.94216L7.13145 9.27086C7.11921 9.3053 7.09825 9.32958 7.06855 9.34371C7.03885 9.35783 7.00678 9.35878 6.97234 9.34654L6.56382 9.20138Z" fill="white"/>
</g>
<defs>
<filter id="filter0_d_108_6416" x="0" y="0" width="13" height="13.5" filterUnits="userSpaceOnUse" color-interpolation-filters="sRGB">
<feFlood flood-opacity="0" result="BackgroundImageFix"/>
<feColorMatrix in="SourceAlpha" type="matrix" values="0 0 0 0 0 0 0 0 0 0 0 0 0 0 0 0 0 0 127 0" result="hardAlpha"/>
<feOffset dy="0.5"/>
<feComposite in2="hardAlpha" operator="out"/>
<feColorMatrix type="matrix" values="0 0 0 0 0 0 0 0 0 0 0 0 0 0 0 0 0 0 0.05 0"/>
<feBlend mode="normal" in2="BackgroundImageFix" result="effect1_dropShadow_108_6416"/>
<feBlend mode="normal" in="SourceGraphic" in2="effect1_dropShadow_108_6416" result="shape"/>
</filter>
<radialGradient id="paint0_radial_108_6416" cx="0" cy="0" r="1" gradientUnits="userSpaceOnUse" gradientTransform="translate(6.18438 6.27596) scale(6.76999)">
<stop stop-color="#FFA700"/>
<stop offset="0.3227" stop-color="#FCA300"/>
<stop offset="0.6649" stop-color="#F39600"/>
<stop offset="1" stop-color="#E58200"/>
</radialGradient>
<linearGradient id="paint1_linear_108_6416" x1="6.5" y1="5.28764" x2="6.5" y2="19" gradientUnits="userSpaceOnUse">
<stop stop-color="#E58200" stop-opacity="0"/>
<stop offset="0.0396" stop-color="#E27F04" stop-opacity="0.039216"/>
<stop offset="0.4671" stop-color="#C15D2F" stop-opacity="0.466667"/>
<stop offset="0.8016" stop-color="#AD4949" stop-opacity="0.8"/>
<stop offset="1" stop-color="#A64153"/>
</linearGradient>
<linearGradient id="paint2_linear_108_6416" x1="6.5" y1="8.87056" x2="6.5" y2="-8.8198" gradientUnits="userSpaceOnUse">
<stop stop-color="#E58200" stop-opacity="0"/>
<stop offset="0.0396" stop-color="#E27F04" stop-opacity="0.039216"/>
<stop offset="0.4671" stop-color="#C15D2F" stop-opacity="0.466667"/>
<stop offset="0.8016" stop-color="#AD4949" stop-opacity="0.8"/>
<stop offset="1" stop-color="#A64153"/>
</linearGradient>
<linearGradient id="paint3_linear_108_6416" x1="6.5" y1="6.97138" x2="6.5" y2="15.9753" gradientUnits="userSpaceOnUse">
<stop stop-color="#E58200" stop-opacity="0"/>
<stop offset="0.0396" stop-color="#E27F04" stop-opacity="0.039216"/>
<stop offset="0.4671" stop-color="#C15D2F" stop-opacity="0.466667"/>
<stop offset="0.8016" stop-color="#AD4949" stop-opacity="0.8"/>
<stop offset="1" stop-color="#A64153"/>
</linearGradient>
<linearGradient id="paint4_linear_108_6416" x1="6.5" y1="12.1925" x2="6.5" y2="-13.433" gradientUnits="userSpaceOnUse">
<stop stop-color="#E58200" stop-opacity="0"/>
<stop offset="0.0396" stop-color="#E27F04" stop-opacity="0.039216"/>
<stop offset="0.4671" stop-color="#C15D2F" stop-opacity="0.466667"/>
<stop offset="0.8016" stop-color="#AD4949" stop-opacity="0.8"/>
<stop offset="1" stop-color="#A64153"/>
</linearGradient>
<radialGradient id="paint5_radial_108_6416" cx="0" cy="0" r="1" gradientUnits="userSpaceOnUse" gradientTransform="translate(4.43359 4.74113) scale(9.8845 9.12816)">
<stop stop-color="#FFC738"/>
<stop offset="0.2837" stop-color="#FFC534"/>
<stop offset="0.5391" stop-color="#FFBF29"/>
<stop offset="0.7827" stop-color="#FFB417"/>
<stop offset="1" stop-color="#FFA700"/>
</radialGradient>
<radialGradient id="paint6_radial_108_6416" cx="0" cy="0" r="1" gradientUnits="userSpaceOnUse" gradientTransform="translate(6.49999 6.5) scale(6.76641 6.26275)">
<stop stop-color="#FFFCF8"/>
<stop offset="0.9485" stop-color="#FFFCF8" stop-opacity="0.05098"/>
<stop offset="1" stop-color="#FFFCF8" stop-opacity="0"/>
</radialGradient>
<radialGradient id="paint7_radial_108_6416" cx="0" cy="0" r="1" gradientUnits="userSpaceOnUse" gradientTransform="translate(7.16545 5.66655) scale(10.173 10.1732)">
<stop stop-color="#FFA700"/>
<stop offset="0.3227" stop-color="#FCA300"/>
<stop offset="0.6649" stop-color="#F39600"/>
<stop offset="1" stop-color="#E58200"/>
</radialGradient>
<radialGradient id="paint8_radial_108_6416" cx="0" cy="0" r="1" gradientUnits="userSpaceOnUse" gradientTransform="translate(3.79652 4.23584) scale(11.3122 9.60822)">
<stop stop-color="#FFC738"/>
<stop offset="0.2837" stop-color="#FFC534"/>
<stop offset="0.5391" stop-color="#FFBF29"/>
<stop offset="0.7827" stop-color="#FFB417"/>
<stop offset="1" stop-color="#FFA700"/>
</radialGradient>
</defs>
</svg>
