<svg width="30" height="92" viewBox="0 0 30 92" fill="none" xmlns="http://www.w3.org/2000/svg">
<g filter="url(#filter0_di_3016_10997)">
<path d="M47.8091 40.9093C47.8324 40.0362 48.3482 39.7115 48.4506 38.9849C48.5652 37.9071 48.4072 36.8177 47.9908 35.817C47.5745 34.8162 46.9133 33.9361 46.068 33.2577C44.7785 32.3348 43.2046 31.8967 41.6237 32.0206C40.0427 31.8967 38.4688 32.3348 37.1793 33.2577C36.334 33.9361 35.6728 34.8162 35.2565 35.817C34.8402 36.8177 34.6821 37.9071 34.7968 38.9849C34.8991 39.7115 35.4149 40.0362 35.4382 40.9093C35.468 42.0244 34.4203 42.3452 34.5218 43.3377C34.5549 43.6348 34.6597 43.9193 34.8274 44.1668C34.995 44.4142 35.2204 44.6172 35.484 44.758C36.248 45.1211 37.3934 44.0818 37.8835 46.7056C37.912 46.8665 37.9758 47.0191 38.0703 47.1524C38.1648 47.2857 38.2877 47.3964 38.4301 47.4765C39.4087 48.004 40.5135 48.2524 41.6237 48.1944C42.7339 48.2524 43.8386 48.004 44.8172 47.4765C44.9596 47.3964 45.0825 47.2857 45.177 47.1524C45.2715 47.0191 45.3353 46.8665 45.3638 46.7056C45.8539 44.0818 46.9994 45.1211 47.7633 44.758C48.0269 44.6172 48.2523 44.4142 48.4199 44.1668C48.5876 43.9193 48.6924 43.6348 48.7255 43.3377C48.827 42.3452 47.7793 42.0244 47.8091 40.9093ZM39.2024 42.8223C38.8531 42.8861 37.7507 43.0394 37.142 42.4512C36.4396 41.7725 36.6324 40.3011 37.1676 39.8148C37.6716 39.3568 38.549 39.4742 39.1129 39.5589C39.4204 39.5677 39.7211 39.6516 39.9888 39.8033C40.2565 39.955 40.483 40.1698 40.6486 40.4291C40.943 40.9538 40.5655 41.715 40.5334 41.7857C40.4206 42.0591 40.2386 42.2985 40.0052 42.4803C39.7719 42.662 39.4952 42.7799 39.2024 42.8223ZM42.718 46.0109C42.4721 46.1605 41.9837 46.0146 41.6219 45.659C41.2601 46.0146 40.7752 46.1605 40.5293 46.0109C40.2337 45.8309 40.2498 45.2656 40.3627 44.9924C40.5902 44.438 40.8709 43.907 41.2007 43.4067C41.3269 43.229 41.4472 43.247 41.6237 43.372C41.8002 43.247 41.9205 43.229 42.0467 43.4067C42.3765 43.907 42.6571 44.438 42.8847 44.9924C42.9975 45.2656 43.0137 45.8309 42.718 46.0109ZM46.1053 42.4512C45.4966 43.0394 44.3943 42.8861 44.0449 42.8223C43.7521 42.7799 43.4755 42.6621 43.2421 42.4803C43.0087 42.2985 42.8267 42.0591 42.7139 41.7857C42.6818 41.715 42.3043 40.9538 42.5987 40.4291C42.7643 40.1698 42.9908 39.955 43.2585 39.8033C43.5262 39.6516 43.8269 39.5677 44.1345 39.5589C44.6983 39.4742 45.5757 39.3568 46.0797 39.8148C46.6149 40.3011 46.8077 41.7725 46.1053 42.4512Z" fill="#F55046"/>
<path d="M38.3236 53.4812C39.0986 53.8412 39.7936 54.1662 40.4236 54.4562C36.8836 56.0912 36.4736 56.2962 36.1186 57.1862C35.9497 57.7144 35.7038 58.2148 35.3886 58.6712C35.2302 58.8311 35.0332 58.9475 34.8167 59.0093C34.6002 59.071 34.3715 59.076 34.1525 59.0238C33.9335 58.9716 33.7317 58.8639 33.5664 58.711C33.4011 58.5582 33.2779 58.3654 33.2086 58.1512C33.1226 57.7672 33.126 57.3686 33.2186 56.9862C33.2279 56.9632 33.2325 56.9386 33.2323 56.9139C33.232 56.8891 33.2268 56.8646 33.2171 56.8419C33.2073 56.8191 33.1932 56.7985 33.1754 56.7812C33.1577 56.7639 33.1367 56.7503 33.1136 56.7412C31.5236 56.1162 31.7786 54.3362 32.9836 54.0212C33.7186 53.8312 34.5286 54.3862 35.3036 54.4262C35.8386 54.4512 36.9686 54.0562 38.3236 53.4812Z" fill="#F55046"/>
<path d="M50.0937 51.8262C49.0437 51.8962 48.8187 51.3262 47.7437 51.3712C47.2821 51.386 46.8275 51.4877 46.4037 51.6712C45.8737 51.9212 45.3737 52.1612 44.8987 52.3812C44.2187 52.0812 43.4887 51.7462 42.7837 51.4162C43.6687 50.9862 44.4887 50.5812 45.1587 50.2612C45.7397 49.9795 46.2783 49.6176 46.7587 49.1862C47.3337 48.4362 47.1237 47.4712 48.0487 46.9312C48.7187 46.5362 50.3687 46.7412 49.9737 48.7512C49.9538 48.8405 49.9672 48.934 50.0114 49.0141C50.0556 49.0942 50.1275 49.1554 50.2137 49.1862C50.4504 49.2807 50.6635 49.4259 50.838 49.6117C51.0125 49.7974 51.1441 50.0191 51.2237 50.2612C51.277 50.618 51.1887 50.9815 50.9775 51.2739C50.7663 51.5664 50.4491 51.7646 50.0937 51.8262Z" fill="#F55046"/>
<path d="M50.1337 56.7412C50.1107 56.7504 50.0897 56.764 50.072 56.7813C50.0542 56.7985 50.0401 56.8191 50.0303 56.8419C50.0205 56.8647 50.0154 56.8891 50.0151 56.9139C50.0148 56.9387 50.0195 56.9633 50.0287 56.9862C50.1214 57.3687 50.1248 57.7673 50.0387 58.1512C49.9695 58.3655 49.8463 58.5582 49.681 58.7111C49.5157 58.8639 49.3138 58.9716 49.0949 59.0238C48.8759 59.0761 48.6471 59.0711 48.4306 59.0093C48.2142 58.9476 48.0172 58.8311 47.8587 58.6712C47.5436 58.2149 47.2976 57.7145 47.1287 57.1862C46.6324 55.9392 46.0088 56.0247 36.8437 51.6712C36.4199 51.4877 35.9653 51.386 35.5037 51.3712C34.4287 51.3262 34.2037 51.8962 33.1537 51.8262C32.7983 51.7646 32.4811 51.5664 32.2699 51.2739C32.0588 50.9815 31.9704 50.618 32.0237 50.2612C32.1033 50.0191 32.235 49.7974 32.4095 49.6117C32.584 49.4259 32.797 49.2807 33.0337 49.1862C33.1199 49.1554 33.1918 49.0942 33.236 49.0141C33.2802 48.934 33.2936 48.8405 33.2737 48.7512C32.8787 46.7412 34.5287 46.5362 35.1987 46.9312C36.1237 47.4712 35.9137 48.4362 36.4887 49.1862C37.065 49.9546 46.4617 54.4911 47.9437 54.4262C48.7187 54.3862 49.5287 53.8312 50.2637 54.0212C51.4687 54.3362 51.7237 56.1162 50.1337 56.7412Z" fill="#F55046"/>
</g>
<defs>
<filter id="filter0_di_3016_10997" x="0" y="0" width="83.2473" height="91.0597" filterUnits="userSpaceOnUse" color-interpolation-filters="sRGB">
<feFlood flood-opacity="0" result="BackgroundImageFix"/>
<feColorMatrix in="SourceAlpha" type="matrix" values="0 0 0 0 0 0 0 0 0 0 0 0 0 0 0 0 0 0 127 0" result="hardAlpha"/>
<feOffset/>
<feGaussianBlur stdDeviation="16"/>
<feComposite in2="hardAlpha" operator="out"/>
<feColorMatrix type="matrix" values="0 0 0 0 0.933333 0 0 0 0 0.115667 0 0 0 0 0.0661111 0 0 0 0.28 0"/>
<feBlend mode="normal" in2="BackgroundImageFix" result="effect1_dropShadow_3016_10997"/>
<feBlend mode="normal" in="SourceGraphic" in2="effect1_dropShadow_3016_10997" result="shape"/>
<feColorMatrix in="SourceAlpha" type="matrix" values="0 0 0 0 0 0 0 0 0 0 0 0 0 0 0 0 0 0 127 0" result="hardAlpha"/>
<feOffset dy="4"/>
<feGaussianBlur stdDeviation="2"/>
<feComposite in2="hardAlpha" operator="arithmetic" k2="-1" k3="1"/>
<feColorMatrix type="matrix" values="0 0 0 0 0 0 0 0 0 0 0 0 0 0 0 0 0 0 0.25 0"/>
<feBlend mode="normal" in2="shape" result="effect2_innerShadow_3016_10997"/>
</filter>
</defs>
</svg>
