<svg width="16" height="16" viewBox="0 0 16 16" fill="none" xmlns="http://www.w3.org/2000/svg">
<path d="M7.42905 11.2224L4.77737 8.57072C4.22906 8.02241 3.33696 8.02241 2.78864 8.57072C2.60561 8.75375 2.60561 9.0506 2.78864 9.23363L6.76614 13.2111C6.94917 13.3942 7.24602 13.3942 7.42905 13.2111C7.9774 12.6628 7.9774 11.7707 7.42905 11.2224Z" fill="black"/>
<path d="M7.42905 11.2224L4.77737 8.57072C4.22906 8.02241 3.33696 8.02241 2.78864 8.57072C2.60561 8.75375 2.60561 9.0506 2.78864 9.23363L6.76614 13.2111C6.94917 13.3942 7.24602 13.3942 7.42905 13.2111C7.9774 12.6628 7.9774 11.7707 7.42905 11.2224Z" fill="url(#paint0_linear_2404_7276)"/>
<path d="M3.45178 11.2225L2.12598 12.5483L3.45178 13.8741L4.77758 12.5483L3.45178 11.2225Z" fill="black"/>
<path d="M3.45178 11.2225L2.12598 12.5483L3.45178 13.8741L4.77758 12.5483L3.45178 11.2225Z" fill="url(#paint1_linear_2404_7276)"/>
<path d="M2.78902 14.5371L1.46301 13.2111C0.924163 12.6722 0.000187501 13.055 0 13.8171V14.594C0 14.9817 0.157626 15.3329 0.412378 15.5877C0.66713 15.8424 1.01832 16.0001 1.4061 16.0001H2.18295C2.9448 15.9999 3.32774 15.0758 2.78902 14.5371Z" fill="black"/>
<path d="M2.78902 14.5371L1.46301 13.2111C0.924163 12.6722 0.000187501 13.055 0 13.8171V14.594C0 14.9817 0.157626 15.3329 0.412378 15.5877C0.66713 15.8424 1.01832 16.0001 1.4061 16.0001H2.18295C2.9448 15.9999 3.32774 15.0758 2.78902 14.5371Z" fill="url(#paint2_linear_2404_7276)"/>
<path d="M15.4655 0.00415166L10.8251 0.667094C10.7089 0.683594 10.6031 0.74347 10.5286 0.834126L5.00781 7.47527L6.43476 8.90222L10.7437 4.59325C10.9269 4.41003 11.2235 4.41003 11.4066 4.59325C11.5898 4.77647 11.5899 5.07297 11.4066 5.25616L7.09767 9.56513L8.52462 10.9921L15.1658 5.47128C15.2564 5.39685 15.3163 5.29097 15.3328 5.17478L15.9957 0.534343C16.0378 0.242372 15.7575 -0.0379424 15.4655 0.00415166Z" fill="black"/>
<path d="M15.4655 0.00415166L10.8251 0.667094C10.7089 0.683594 10.6031 0.74347 10.5286 0.834126L5.00781 7.47527L6.43476 8.90222L10.7437 4.59325C10.9269 4.41003 11.2235 4.41003 11.4066 4.59325C11.5898 4.77647 11.5899 5.07297 11.4066 5.25616L7.09767 9.56513L8.52462 10.9921L15.1658 5.47128C15.2564 5.39685 15.3163 5.29097 15.3328 5.17478L15.9957 0.534343C16.0378 0.242372 15.7575 -0.0379424 15.4655 0.00415166Z" fill="url(#paint3_linear_2404_7276)"/>
<defs>
<linearGradient id="paint0_linear_2404_7276" x1="7.84031" y1="8.15949" x2="1.74574" y2="9.65311" gradientUnits="userSpaceOnUse">
<stop stop-color="#FCA311"/>
<stop offset="1" stop-color="#FFE5A4"/>
</linearGradient>
<linearGradient id="paint1_linear_2404_7276" x1="3.45178" y1="11.2225" x2="2.27621" y2="13.1614" gradientUnits="userSpaceOnUse">
<stop stop-color="#FCA311"/>
<stop offset="1" stop-color="#FFE5A4"/>
</linearGradient>
<linearGradient id="paint2_linear_2404_7276" x1="3.04086" y1="12.9591" x2="-0.530735" y2="13.8344" gradientUnits="userSpaceOnUse">
<stop stop-color="#FCA311"/>
<stop offset="1" stop-color="#FFE5A4"/>
</linearGradient>
<linearGradient id="paint3_linear_2404_7276" x1="15.9999" y1="-6.03668e-05" x2="3.08935" y2="3.16398" gradientUnits="userSpaceOnUse">
<stop stop-color="#FCA311"/>
<stop offset="1" stop-color="#FFE5A4"/>
</linearGradient>
</defs>
</svg>
