<svg width="12" height="16" viewBox="0 0 12 16" fill="none" xmlns="http://www.w3.org/2000/svg">
<path d="M6.89005 0L4.34003 1.89165L6.8841 2.50131L6.89005 0Z" fill="url(#paint0_linear_2376_1455)"/>
<path d="M11.5523 7.53663L10.6521 3.23047L9.17603 6.23668L11.5523 7.53663Z" fill="url(#paint1_linear_2376_1455)"/>
<path d="M6.69085 2.79647L3.96987 2.14441L1.18921 3.32382L3.36591 5.59327L6.69085 2.79647Z" fill="url(#paint2_linear_2376_1455)"/>
<path d="M3.38593 8.5182L8.72384 6.22468L6.99914 2.97223L3.51595 5.90154L3.38593 8.5182Z" fill="url(#paint3_linear_2376_1455)"/>
<path d="M3.47083 8.84314L4.96708 10.7489L10.9618 12.2556L8.8605 6.52734L3.47083 8.84314Z" fill="url(#paint4_linear_2376_1455)"/>
<path d="M4.70328 10.9505L3.15892 8.98346L0 10.5118L1.01482 14.178L4.59238 13.765L4.70328 10.9505Z" fill="url(#paint5_linear_2376_1455)"/>
<path d="M4.92358 13.7918L9.41462 15.1488L10.9668 12.5992L5.02937 11.1069L4.92358 13.7918Z" fill="url(#paint6_linear_2376_1455)"/>
<path d="M11.1441 11.7883L11.61 7.94677L9.2641 6.66339L11.1441 11.7883Z" fill="url(#paint7_linear_2376_1455)"/>
<path d="M1.46521 14.4603L4.07931 15.7693L8.66223 15.2684L4.73755 14.0825L1.46521 14.4603Z" fill="url(#paint8_linear_2376_1455)"/>
<path d="M10.5093 2.76785L7.22197 0.0236816L7.2157 2.67056L8.95032 5.94061L10.5093 2.76785Z" fill="url(#paint9_linear_2376_1455)"/>
<path d="M3.18432 5.88395L1.01572 3.62274L0.0150757 10.1357L3.04596 8.66926L3.18432 5.88395ZM1.38986 5.6577L1.0209 7.87999C1.01733 7.9015 1.00955 7.92209 0.998025 7.9406C0.986495 7.9591 0.971433 7.97515 0.9537 7.98784C0.935966 8.00052 0.915908 8.00959 0.894671 8.01452C0.873433 8.01945 0.851433 8.02015 0.829925 8.01658C0.808417 8.01301 0.787823 8.00523 0.769319 7.9937C0.750815 7.98217 0.734763 7.96711 0.72208 7.94938C0.709397 7.93164 0.700331 7.91159 0.695399 7.89035C0.690468 7.86911 0.689768 7.84711 0.693339 7.8256L1.06224 5.60331C1.06945 5.55987 1.09362 5.52108 1.12944 5.49546C1.16525 5.46985 1.20978 5.45951 1.25321 5.46672C1.29665 5.47394 1.33544 5.49811 1.36106 5.53392C1.38667 5.56974 1.39701 5.61426 1.3898 5.6577H1.38986ZM1.51504 4.9037L1.49512 5.02323C1.48791 5.06667 1.46373 5.10546 1.42791 5.13107C1.39209 5.15668 1.34757 5.16702 1.30413 5.1598C1.26069 5.15258 1.2219 5.12841 1.19629 5.09259C1.17068 5.05677 1.16035 5.01225 1.16756 4.96881L1.18748 4.84927C1.1947 4.80584 1.21888 4.76705 1.2547 4.74143C1.29051 4.71582 1.33504 4.70549 1.37848 4.7127C1.42191 4.71992 1.4607 4.7441 1.48632 4.77992C1.51193 4.81573 1.52226 4.86026 1.51504 4.9037Z" fill="url(#paint10_linear_2376_1455)"/>
<defs>
<linearGradient id="paint0_linear_2376_1455" x1="6.52576" y1="0.703493" x2="4.44493" y2="0.555667" gradientUnits="userSpaceOnUse">
<stop stop-color="#7B7B7B"/>
<stop offset="1" stop-color="#E9E9E9"/>
</linearGradient>
<linearGradient id="paint1_linear_2376_1455" x1="11.2128" y1="4.44158" x2="9.26687" y2="4.36675" gradientUnits="userSpaceOnUse">
<stop stop-color="#7B7B7B"/>
<stop offset="1" stop-color="#E9E9E9"/>
</linearGradient>
<linearGradient id="paint2_linear_2376_1455" x1="5.9049" y1="3.1144" x2="1.44795" y2="2.61896" gradientUnits="userSpaceOnUse">
<stop stop-color="#7B7B7B"/>
<stop offset="1" stop-color="#E9E9E9"/>
</linearGradient>
<linearGradient id="paint3_linear_2376_1455" x1="7.96128" y1="4.53203" x2="3.60314" y2="4.23973" gradientUnits="userSpaceOnUse">
<stop stop-color="#7B7B7B"/>
<stop offset="1" stop-color="#E9E9E9"/>
</linearGradient>
<linearGradient id="paint4_linear_2376_1455" x1="9.89166" y1="8.13843" x2="3.79874" y2="7.58319" gradientUnits="userSpaceOnUse">
<stop stop-color="#7B7B7B"/>
<stop offset="1" stop-color="#E9E9E9"/>
</linearGradient>
<linearGradient id="paint5_linear_2376_1455" x1="4.03138" y1="10.4444" x2="0.18941" y2="10.202" gradientUnits="userSpaceOnUse">
<stop stop-color="#7B7B7B"/>
<stop offset="1" stop-color="#E9E9E9"/>
</linearGradient>
<linearGradient id="paint6_linear_2376_1455" x1="10.1035" y1="12.2437" x2="5.20053" y2="11.7328" gradientUnits="userSpaceOnUse">
<stop stop-color="#7B7B7B"/>
<stop offset="1" stop-color="#E9E9E9"/>
</linearGradient>
<linearGradient id="paint7_linear_2376_1455" x1="11.2749" y1="8.10476" x2="9.3529" y2="8.04345" gradientUnits="userSpaceOnUse">
<stop stop-color="#7B7B7B"/>
<stop offset="1" stop-color="#E9E9E9"/>
</linearGradient>
<linearGradient id="paint8_linear_2376_1455" x1="7.63408" y1="14.5569" x2="2.21102" y2="12.9445" gradientUnits="userSpaceOnUse">
<stop stop-color="#7B7B7B"/>
<stop offset="1" stop-color="#E9E9E9"/>
</linearGradient>
<linearGradient id="paint9_linear_2376_1455" x1="10.0388" y1="1.68782" x2="7.34168" y2="1.5832" gradientUnits="userSpaceOnUse">
<stop stop-color="#7B7B7B"/>
<stop offset="1" stop-color="#E9E9E9"/>
</linearGradient>
<linearGradient id="paint10_linear_2376_1455" x1="2.73157" y1="5.45451" x2="0.135386" y2="5.36647" gradientUnits="userSpaceOnUse">
<stop stop-color="#7B7B7B"/>
<stop offset="1" stop-color="#E9E9E9"/>
</linearGradient>
</defs>
</svg>
