<svg width="23" height="16" viewBox="0 0 23 16" fill="none" xmlns="http://www.w3.org/2000/svg">
<path d="M16.3858 6.1857L13.7238 7.80726C13.7028 7.86386 13.6808 7.9205 13.6574 7.97728C13.5083 8.33833 13.3253 8.65995 13.1113 8.94022L16.0674 8.9395L19.9628 5.12939C20.2424 4.8559 20.5771 4.65784 20.941 4.54464L22.1261 2.48903C22.2246 2.3181 22.1571 2.11395 21.9761 2.03541C21.9761 2.03541 21.6388 1.88911 21.2652 1.72465C20.569 1.41778 19.9751 2.10067 19.7521 2.40843C19.3289 2.99242 16.8179 5.75155 16.533 6.06429C16.49 6.11152 16.4403 6.15238 16.3858 6.1857Z" fill="#BBBFD0"/>
<path d="M14.0987 5.83046C14.0987 5.84055 14.0984 5.90374 14.0927 6.00708L15.6034 5.0868L17.2104 3.30365L17.9873 0.634665C18.0425 0.445173 17.9304 0.253171 17.7384 0.208007C17.7384 0.208007 17.2677 0.0973613 16.8215 0.0144336C16.3234 -0.078137 15.8752 0.274923 15.4885 1.06352C15.2491 1.55163 14.335 3.53189 14.3258 3.5518C14.2654 3.68263 14.1647 3.79059 14.0384 3.85983L11.6709 5.15775H13.426C13.7976 5.15775 14.0987 5.45892 14.0987 5.83046Z" fill="#BBBFD0"/>
<path d="M22.8668 6.55608C22.8668 6.55608 22.6995 6.37825 22.4361 6.10893C22.2285 5.89661 21.9507 5.77968 21.6537 5.77968C21.5928 5.77968 21.5327 5.78493 21.4738 5.79466C21.4706 5.7952 21.4675 5.79579 21.4644 5.79628C21.2484 5.83382 21.0487 5.93518 20.889 6.09139L16.8121 10.0932C16.6865 10.2161 16.5177 10.2849 16.342 10.2849C16.342 10.2849 10.2972 10.2863 10.2968 10.2863H10.2956L8.2051 10.2891C6.98029 10.2891 6.39096 10.6967 6.36571 10.7147C6.24093 10.8167 6.09024 10.8664 5.94053 10.8664C5.74713 10.8664 5.55522 10.7834 5.42215 10.6229C5.18512 10.3368 5.2249 9.91266 5.51095 9.67559C5.83908 9.40371 6.7755 8.94363 8.20393 8.94363L10.2934 8.94076H10.2943H10.2945H10.2951H10.3028C12.0202 8.93852 12.5341 7.41927 12.6878 6.50316H9.7862C8.38369 6.50316 7.26697 6.24133 6.52869 5.98815C5.81993 5.74506 5.15049 5.51547 3.80302 5.51547C1.90761 5.51547 0.227166 7.57041 0.227166 7.57041C0.102168 7.72326 0 8.00968 0 8.20706V15.246C0 15.4433 0.150786 15.547 0.33512 15.4765L3.17552 14.3889C3.22974 14.3681 3.28643 14.3545 3.34416 14.3483C3.4396 14.3381 13.2712 13.3187 15.9694 12.9831C16.3844 12.9315 16.6459 12.8337 16.8172 12.6661C16.8216 12.6619 16.826 12.6577 16.8304 12.6536L22.8493 7.06132C22.9941 6.92717 23.0019 6.69983 22.8668 6.55608Z" fill="#BBBFD0"/>
</svg>
