<svg width="23" height="23" viewBox="0 0 23 23" fill="none" xmlns="http://www.w3.org/2000/svg">
<path d="M0.715332 15.5C2.3402 19.8792 6.55545 23 11.5 23C16.4446 23 20.6599 19.8792 22.2847 15.5L11.5 14.5L0.715332 15.5Z" fill="#FFDA44"/>
<path d="M11.5 0C6.55545 0 2.3402 3.12081 0.715332 7.50002L11.5 8.49998L22.2847 7.49998C20.6599 3.12081 16.4446 0 11.5 0Z" fill="black"/>
<path d="M0.715291 7.5C0.253045 8.74582 0 10.0933 0 11.5C0 12.9067 0.253045 14.2541 0.715291 15.5H22.2848C22.747 14.2541 23 12.9067 23 11.5C23 10.0933 22.747 8.74582 22.2847 7.5H0.715291Z" fill="#D80027"/>
</svg>
