<svg width="23" height="23" viewBox="0 0 23 23" fill="none" xmlns="http://www.w3.org/2000/svg">
<mask id="mask0_104_1050" style="mask-type:alpha" maskUnits="userSpaceOnUse" x="0" y="0" width="23" height="23">
<ellipse cx="11.5" cy="11.5" rx="11.5" ry="11.5" fill="#D9D9D9"/>
</mask>
<g mask="url(#mask0_104_1050)">
<path d="M27.4664 23.9835H-5.38594C-6.98421 23.9835 -8.27979 22.6879 -8.27979 21.0896V1.56141C-8.27979 -0.0367968 -6.98421 -1.33244 -5.38594 -1.33244H27.4664C29.0646 -1.33244 30.3602 -0.0368722 30.3602 1.56141V21.0896C30.3602 22.6879 29.0646 23.9835 27.4664 23.9835Z" fill="#41479B"/>
<path d="M30.3201 21.568C30.0921 22.9384 28.9016 23.9835 27.4664 23.9835H26.7134L14.3713 15.8973V23.9835H7.70917V15.8972L-4.63298 23.9835H-5.38594C-6.82113 23.9835 -8.01164 22.9384 -8.23971 21.5679L2.30916 14.6565H-8.27979V7.99442H2.30916L-8.23971 1.08314C-8.01164 -0.287293 -6.82113 -1.33238 -5.38594 -1.33238H-4.63298L7.70917 6.75387V-1.33238H14.3713V6.75387L26.7134 -1.33238H27.4664C28.9016 -1.33238 30.0921 -0.287368 30.3201 1.08314L19.7713 7.99457H30.3602V14.6567H19.7713L30.3201 21.568Z" fill="#F5F5F5"/>
<path d="M13.0389 23.9835H9.04158V13.3242H-8.27979V9.32692H9.04158V-1.33237H13.0389V9.32692H30.3602V13.3242H13.0389V23.9835Z" fill="#FF4B55"/>
<path d="M-6.40852 -1.14583L7.67266 7.99449H5.22536L-7.5835 -0.32005C-7.27007 -0.685847 -6.8673 -0.972479 -6.40852 -1.14583Z" fill="#FF4B55"/>
<path d="M17.8619 7.99449H15.4146L29.053 -0.858371C29.4346 -0.607739 29.7531 -0.269188 29.9802 0.128382L17.8619 7.99449Z" fill="#FF4B55"/>
<path d="M-7.97412 22.3836L3.92957 14.6565H6.37687L-7.11182 23.4124C-7.47399 23.1429 -7.77036 22.7904 -7.97412 22.3836Z" fill="#FF4B55"/>
<path d="M16.8184 14.6566L29.6507 22.9864C29.3338 23.351 28.9279 23.636 28.4659 23.806L14.3711 14.6566H16.8184Z" fill="#FF4B55"/>
</g>
</svg>
