<svg width="23" height="23" viewBox="0 0 23 23" fill="none" xmlns="http://www.w3.org/2000/svg">
<path d="M0 11.5C0 10.0933 0.253045 8.74579 0.715291 7.49998L11.5 6.49997L22.2847 7.49998C22.747 8.74579 23 10.0933 23 11.5C23 12.9066 22.747 14.2541 22.2847 15.4999L11.5 16.4999L0.715291 15.4999C0.253045 14.2541 0 12.9066 0 11.5H0Z" fill="#FFDA44"/>
<path d="M22.2847 15.5C20.6599 19.8791 16.4446 23 11.5 23C6.55545 23 2.3402 19.8791 0.715332 15.5H22.2847Z" fill="#D80027"/>
<path d="M0.715332 7.5C2.3402 3.12084 6.55545 -2.15173e-05 11.5 -2.15173e-05C16.4446 -2.15173e-05 20.6599 3.12084 22.2847 7.5H0.715332Z" fill="#D80027"/>
</svg>
