<svg width="23" height="23" viewBox="0 0 23 23" fill="none" xmlns="http://www.w3.org/2000/svg">
<path d="M11.5 23C17.8511 23 23 17.8506 23 11.5C23 5.14939 17.8511 0 11.5 0C5.14894 0 0 5.14939 0 11.5C0 17.8506 5.14894 23 11.5 23Z" fill="#D80027"/>
<path fill-rule="evenodd" clip-rule="evenodd" d="M5.20337 11.5C5.20443 12.0624 5.3513 12.6148 5.62962 13.1035C5.90795 13.5921 6.30822 14.0003 6.79137 14.2881C7.27452 14.5758 7.82403 14.7334 8.38626 14.7454C8.94849 14.7574 9.50424 14.6235 9.99923 14.3566C9.43617 14.9056 8.72367 15.2764 7.95092 15.4226C7.17816 15.5687 6.37947 15.4837 5.65479 15.1782C4.93012 14.8726 4.31165 14.3602 3.87678 13.7049C3.44191 13.0496 3.20996 12.2806 3.20996 11.4942C3.20996 10.7077 3.44191 9.93872 3.87678 9.28344C4.31165 8.62816 4.93012 8.11568 5.65479 7.81015C6.37947 7.50462 7.17816 7.4196 7.95092 7.56574C8.72367 7.71188 9.43617 8.08268 9.99923 8.63174C9.52164 8.38284 8.99156 8.25147 8.45302 8.24855C7.59107 8.24927 6.76465 8.59212 6.15532 9.20178C5.546 9.81144 5.20361 10.638 5.20337 11.5ZM11.9722 10.695L11.0288 9.39226V11.0023L9.5015 11.5004L11.0194 11.9941V13.5974L11.965 12.3005L13.4982 12.7987L12.5548 11.496L13.4982 10.1991L11.9722 10.695Z" fill="#F0F0F0"/>
</svg>
