<svg width="24" height="21" viewBox="0 0 24 21" fill="none" xmlns="http://www.w3.org/2000/svg">
<path d="M2.29119 0C3.30491 0 4.19053 0.559103 4.65593 1.38506C5.12128 0.559103 6.0069 0 7.02066 0H9.1952V2.63779C9.1952 4.13322 7.97857 5.34985 6.48309 5.34985H6.3929V6.57961C6.3929 7.57444 7.20222 8.38375 8.19705 8.38375H20.1856C21.8131 8.38375 23.1372 9.70784 23.1372 11.3353V14.5107C23.1372 16.1382 21.8131 17.4623 20.1856 17.4623H13.3447C13.1713 19.0234 11.8439 20.2415 10.2373 20.2415H9.88996V17.4623H9.23936C5.75426 17.4623 2.91895 14.627 2.91895 11.1419V5.34985H2.82876C1.33328 5.34985 0.11665 4.13322 0.11665 2.63779V0H2.29119ZM13.6502 14.8867H14.9991V13.5378H13.6502V14.8867Z" fill="#BBBFD0"/>
</svg>
